<svg width="14" height="14" viewBox="0 0 14 14" fill="none" xmlns="http://www.w3.org/2000/svg">
<circle cx="7.37196" cy="7.39394" r="5.10365" fill="white"/>
<path d="M13.4353 8.08951C13.2132 7.7825 13.1103 7.40755 13.1107 7.02861C13.1107 7.02641 13.1107 7.02421 13.1107 7.02198C13.1107 3.64713 10.3749 0.911255 7.00002 0.911255C6.26173 0.911255 5.55432 1.04265 4.89924 1.28279C4.54486 1.41269 4.15663 1.43765 3.7933 1.33531C3.47236 1.2449 3.12953 1.20677 2.77438 1.23121C1.28248 1.33387 0.0814183 2.55655 0.00410853 4.04998C-0.0328004 4.76281 0.180971 5.42407 0.564657 5.95441C0.786774 6.26141 0.889714 6.63637 0.88926 7.01531C0.88926 7.01751 0.88926 7.01971 0.88926 7.02194C0.88926 10.3968 3.6251 13.1327 6.99998 13.1327C7.7383 13.1327 8.44572 13.0013 9.10076 12.7611C9.45515 12.6312 9.84337 12.6063 10.2067 12.7086C10.5276 12.799 10.8704 12.8371 11.2256 12.8127C12.7175 12.71 13.9185 11.4874 13.9959 9.99401C14.0328 9.28118 13.819 8.61989 13.4353 8.08951ZM7.22371 5.92644C8.45584 6.21944 10.3178 6.66221 10.3178 8.71316C10.3178 9.72349 9.82022 10.4942 8.9167 10.8833C8.27196 11.161 7.54227 11.1985 6.91349 11.1985C4.98123 11.1985 3.76083 9.69598 3.70981 9.632C3.39338 9.23512 3.4585 8.6568 3.85542 8.34036C4.25224 8.02379 4.83056 8.08909 5.14706 8.48587C5.14989 8.48926 5.87972 9.32744 6.91349 9.36023C8.15834 9.39973 8.44275 9.02934 8.47952 8.71319C8.52446 8.32706 8.18097 8.04359 6.79833 7.7148C5.62639 7.43608 3.85514 7.01489 3.85514 5.12604C3.85514 4.53783 4.09437 2.61864 7.17287 2.61864C9.11671 2.61864 10.2641 4.14908 10.312 4.21424C10.6127 4.62324 10.5249 5.19856 10.1159 5.49918C9.70866 5.7985 9.13697 5.71284 8.83517 5.3088C8.81352 5.28097 8.15673 4.55026 7.17287 4.45686C6.4284 4.38615 5.69336 4.6546 5.69336 5.05117C5.69336 5.47135 5.90445 5.6127 7.22371 5.92644Z" fill="#00AAF2"/>
</svg>
