<svg width="13" height="12" viewBox="0 0 13 12" fill="none" xmlns="http://www.w3.org/2000/svg">
<path d="M6.72041 11.9032C10.0074 11.9032 12.672 9.2386 12.672 5.95161C12.672 2.66463 10.0074 0 6.72041 0C3.43343 0 0.768799 2.66463 0.768799 5.95161C0.768799 9.2386 3.43343 11.9032 6.72041 11.9032Z" fill="#039BE5"/>
<path d="M3.49221 5.8226L9.23055 3.61009C9.49689 3.51387 9.7295 3.67506 9.6432 4.07778L9.64369 4.07729L8.66664 8.68036C8.59423 9.00671 8.4003 9.08607 8.12901 8.93232L6.6411 7.83573L5.92344 8.52711C5.84408 8.60647 5.77713 8.67342 5.62338 8.67342L5.72902 7.15923L8.4866 4.66799C8.60662 4.56234 8.45982 4.50283 8.3016 4.60797L4.89381 6.75353L3.42475 6.29526C3.10585 6.19408 3.0989 5.97635 3.49221 5.8226V5.8226Z" fill="white"/>
</svg>
