<svg width="14" height="15" viewBox="0 0 14 15" fill="none" xmlns="http://www.w3.org/2000/svg">
<path d="M13.6868 3.47889L13.6827 3.46219C13.3449 2.0968 11.8222 0.631661 10.4239 0.326849L10.4081 0.323602C8.14641 -0.107867 5.85313 -0.107867 3.59186 0.323602L3.57562 0.326849C2.17776 0.631661 0.65509 2.0968 0.316874 3.46219L0.313163 3.47889C-0.104388 5.3857 -0.104388 7.31943 0.313163 9.22624L0.316874 9.24294C0.640661 10.5501 2.04994 11.9479 3.39608 12.3323V13.8565C3.39608 14.4081 4.06833 14.679 4.45062 14.281L5.99486 12.6758C6.32978 12.6945 6.66489 12.7049 7 12.7049C8.13852 12.7049 9.2775 12.5973 10.4081 12.3816L10.4239 12.3783C11.8222 12.0735 13.3449 10.6084 13.6827 9.24299L13.6868 9.22629C14.1044 7.31943 14.1044 5.3857 13.6868 3.47889Z" fill="#7D3DAF"/>
<path d="M8.99821 10.1154C8.85699 10.0725 8.7224 10.0437 8.59741 9.99181C7.30226 9.45447 6.11029 8.76124 5.16612 7.69858C4.62919 7.09429 4.20895 6.41206 3.85371 5.69007C3.68525 5.34768 3.54328 4.99188 3.39858 4.6384C3.26663 4.31605 3.46098 3.98303 3.66563 3.74016C3.85765 3.51222 4.10475 3.33778 4.37235 3.20922C4.58122 3.10887 4.78726 3.16672 4.93981 3.34376C5.26958 3.72652 5.57249 4.12885 5.81777 4.57252C5.9686 4.84541 5.92722 5.17899 5.65386 5.36471C5.58743 5.40985 5.52688 5.46283 5.46499 5.51382C5.41071 5.5585 5.35963 5.60364 5.32242 5.66414C5.25441 5.77483 5.25116 5.90539 5.29496 6.02573C5.63206 6.95214 6.20025 7.67251 7.13269 8.0605C7.28189 8.12258 7.43175 8.19486 7.60364 8.17482C7.89152 8.14118 7.98472 7.82542 8.18645 7.66044C8.38362 7.49922 8.63559 7.49709 8.84799 7.63149C9.06043 7.76594 9.26637 7.91028 9.47106 8.05614C9.672 8.19931 9.87205 8.33938 10.0574 8.50259C10.2356 8.65955 10.297 8.86545 10.1966 9.07844C10.0129 9.46853 9.74558 9.79306 9.35995 10.0002C9.25106 10.0586 9.12102 10.0775 8.99821 10.1154C9.12102 10.0775 8.85699 10.0724 8.99821 10.1154Z" fill="white"/>
<path d="M7.00355 2.76316C8.69764 2.81062 10.0891 3.9349 10.3872 5.60974C10.438 5.89511 10.4561 6.18689 10.4787 6.47653C10.4882 6.59836 10.4193 6.71411 10.2878 6.71569C10.152 6.71731 10.0909 6.60369 10.0821 6.48191C10.0646 6.24084 10.0525 5.99871 10.0193 5.75964C9.84391 4.49766 8.83762 3.4536 7.58148 3.22956C7.39247 3.19583 7.19901 3.18697 7.00754 3.16688C6.88649 3.15417 6.72796 3.14684 6.70115 2.99638C6.67864 2.87023 6.78512 2.76979 6.90524 2.76334C6.9379 2.76153 6.97074 2.76302 7.00355 2.76316C6.97074 2.76302 8.69764 2.81062 7.00355 2.76316Z" fill="white"/>
<path d="M9.57806 6.10057C9.57527 6.12173 9.57379 6.17146 9.5614 6.21832C9.51645 6.3884 9.25859 6.4097 9.1992 6.23804C9.18162 6.1871 9.17897 6.12915 9.17888 6.07431C9.17828 5.7155 9.10029 5.35705 8.91935 5.04486C8.73335 4.724 8.44919 4.45426 8.11589 4.29105C7.91436 4.19236 7.69639 4.13103 7.47551 4.09447C7.37896 4.07851 7.2814 4.06882 7.18439 4.05531C7.06682 4.03898 7.00405 3.96406 7.00962 3.84821C7.01481 3.73965 7.09415 3.66156 7.21246 3.66824C7.60124 3.69033 7.97675 3.77435 8.32239 3.95738C9.02527 4.3296 9.42677 4.91714 9.54396 5.70167C9.54925 5.73721 9.55778 5.77242 9.56047 5.8081C9.56711 5.8962 9.57128 5.9844 9.57806 6.10057C9.57128 5.9844 9.57527 6.12173 9.57806 6.10057Z" fill="white"/>
<path d="M8.52433 6.05958C8.38259 6.06213 8.30674 5.98368 8.29212 5.85372C8.28196 5.76312 8.27394 5.6713 8.25232 5.58315C8.20973 5.40954 8.11745 5.24865 7.9714 5.14226C7.90246 5.09202 7.82433 5.05541 7.74249 5.0318C7.63852 5.00178 7.53056 5.01004 7.42682 4.98462C7.31417 4.95701 7.25186 4.8658 7.26959 4.76011C7.28569 4.66394 7.37926 4.58887 7.48435 4.59648C8.14116 4.64389 8.61058 4.98346 8.67757 5.75667C8.6823 5.81123 8.68787 5.86889 8.67576 5.92109C8.65502 6.01044 8.58886 6.05522 8.52433 6.05958C8.58886 6.05522 8.38259 6.06213 8.52433 6.05958Z" fill="white"/>
</svg>
