<svg width="12" height="12" viewBox="0 0 12 12" fill="none" xmlns="http://www.w3.org/2000/svg">
<g clip-path="url(#clip0)">
<path d="M6.0499 0H6.04693C2.76536 0 0.0968018 2.6693 0.0968018 5.95161C0.0968018 7.25353 0.51639 8.46022 1.22984 9.44L0.48812 11.651L2.77577 10.9197C3.71687 11.5432 4.83949 11.9032 6.0499 11.9032C9.33147 11.9032 12 9.23318 12 5.95161C12 2.67004 9.33147 0 6.0499 0Z" fill="#4CAF50"/>
<path d="M9.51305 8.40447C9.36946 8.80993 8.7996 9.14619 8.34504 9.24439C8.03407 9.3106 7.62787 9.36343 6.26049 8.79653C4.51146 8.07193 3.38512 6.29462 3.29733 6.17931C3.21326 6.064 2.59058 5.23821 2.59058 4.38416C2.59058 3.5301 3.0243 3.11423 3.19913 2.93568C3.34271 2.78912 3.58003 2.72217 3.80768 2.72217C3.88133 2.72217 3.94754 2.72589 4.00706 2.72886C4.18189 2.7363 4.26967 2.74672 4.38499 3.02272C4.52857 3.36866 4.87823 4.22272 4.91989 4.31051C4.96229 4.39829 5.0047 4.51732 4.94518 4.63264C4.88939 4.75167 4.84029 4.80449 4.7525 4.90567C4.66471 5.00684 4.58139 5.08421 4.4936 5.19283C4.41326 5.28731 4.3225 5.38849 4.42367 5.56332C4.52485 5.73443 4.87451 6.30504 5.38932 6.76331C6.05367 7.35476 6.59229 7.54372 6.78498 7.62407C6.92856 7.68358 7.09967 7.66945 7.20456 7.55785C7.33773 7.41427 7.50214 7.17621 7.66953 6.94186C7.78857 6.77373 7.93884 6.7529 8.09656 6.81241C8.25726 6.86821 9.10759 7.28854 9.28242 7.37559C9.45725 7.46337 9.57256 7.50503 9.61497 7.57869C9.65663 7.65234 9.65663 7.99827 9.51305 8.40447Z" fill="#FAFAFA"/>
</g>
<defs>
<clipPath id="clip0">
<rect width="11.9032" height="11.9032" fill="white" transform="translate(0.0968018)"/>
</clipPath>
</defs>
</svg>
